{
    "asset" : {
        "generator" : "Khronos glTF Blender I/O v3.2.40",
        "version" : "2.0"
    },
    "scene" : 0,
    "scenes" : [
        {
            "name" : "Scene",
            "nodes" : [
                0
            ]
        }
    ],
    "nodes" : [
        {
            "mesh" : 0,
            "name" : "Model"
        }
    ],
    "materials" : [
        {
            "doubleSided" : true,
            "name" : "Material3",
            "normalTexture" : {
                "index" : 0
            },
            "pbrMetallicRoughness" : {
                "baseColorTexture" : {
                    "index" : 1
                },
                "roughnessFactor" : 0.5527864098548889
            }
        }
    ],
    "meshes" : [
        {
            "name" : "Model",
            "primitives" : [
                {
                    "attributes" : {
                        "POSITION" : 0,
                        "NORMAL" : 1,
                        "TEXCOORD_0" : 2,
                        "TEXCOORD_1" : 3
                    },
                    "indices" : 4,
                    "material" : 0
                }
            ]
        }
    ],
    "textures" : [
        {
            "sampler" : 0,
            "source" : 0
        },
        {
            "sampler" : 0,
            "source" : 1
        }
    ],
    "images" : [
        {
            "mimeType" : "image/png",
            "name" : "Texture_3_NRM",
            "uri" : "Texture_3_NRM.png"
        },
        {
            "mimeType" : "image/png",
            "name" : "Texture_3",
            "uri" : "Texture_3.png"
        }
    ],
    "accessors" : [
        {
            "bufferView" : 0,
            "componentType" : 5126,
            "count" : 12452,
            "max" : [
                8.267792701721191,
                21.665679931640625,
                5.497448921203613
            ],
            "min" : [
                -7.343826770782471,
                -0.544929027557373,
                -11.2220458984375
            ],
            "type" : "VEC3"
        },
        {
            "bufferView" : 1,
            "componentType" : 5126,
            "count" : 12452,
            "type" : "VEC3"
        },
        {
            "bufferView" : 2,
            "componentType" : 5126,
            "count" : 12452,
            "type" : "VEC2"
        },
        {
            "bufferView" : 3,
            "componentType" : 5126,
            "count" : 12452,
            "type" : "VEC2"
        },
        {
            "bufferView" : 4,
            "componentType" : 5123,
            "count" : 21024,
            "type" : "SCALAR"
        }
    ],
    "bufferViews" : [
        {
            "buffer" : 0,
            "byteLength" : 149424,
            "byteOffset" : 0
        },
        {
            "buffer" : 0,
            "byteLength" : 149424,
            "byteOffset" : 149424
        },
        {
            "buffer" : 0,
            "byteLength" : 99616,
            "byteOffset" : 298848
        },
        {
            "buffer" : 0,
            "byteLength" : 99616,
            "byteOffset" : 398464
        },
        {
            "buffer" : 0,
            "byteLength" : 42048,
            "byteOffset" : 498080
        }
    ],
    "samplers" : [
        {
            "magFilter" : 9729,
            "minFilter" : 9987
        }
    ],
    "buffers" : [
        {
            "byteLength" : 540128,
            "uri" : "fhouse2.bin"
        }
    ]
}
