# Blender v2.90.1 OBJ File: ''
# www.blender.org
mtllib pointer1.mtl
o Cube
v 1.000000 1.000000 1.000000
v 1.000000 -1.000000 1.000000
v 0.000000 0.000000 -1.000000
v -1.000000 1.000000 1.000000
v -1.000000 -1.000000 1.000000
vt 0.875000 0.500000
vt 0.875000 0.750000
vt 0.625000 0.750000
vt 0.375000 1.000000
vt 0.375000 0.750000
vt 0.375000 0.000000
vt 0.625000 0.000000
vt 0.375000 0.250000
vt 0.375000 0.500000
vt 0.125000 0.750000
vt 0.625000 0.500000
vt 0.625000 1.000000
vn 0.0000 0.8944 -0.4472
vn 0.0000 0.0000 1.0000
vn -0.8944 0.0000 -0.4472
vn 0.0000 -0.8944 -0.4472
vn 0.8944 0.0000 -0.4472
usemtl Material
s off
f 3/1/1 4/2/1 1/3/1
f 1/3/2 5/4/2 2/5/2
f 5/6/3 4/7/3 3/8/3
f 3/9/4 2/5/4 5/10/4
f 3/11/5 1/3/5 2/5/5
f 1/3/2 4/12/2 5/4/2
